<?xml version="1.0" standalone="no"?>
<!DOCTYPE svg PUBLIC "-//W3C//DTD SVG 20010904//EN"
 "http://www.w3.org/TR/2001/REC-SVG-20010904/DTD/svg10.dtd">
<svg version="1.0" xmlns="http://www.w3.org/2000/svg"
 width="200.000000pt" height="200.000000pt" viewBox="0 0 200.000000 200.000000"
 preserveAspectRatio="xMidYMid meet">

<g transform="translate(0.000000,200.000000) scale(0.100000,-0.100000)"
fill="#000000" stroke="none">
<path d="M10 1000 l0 -1000 995 0 995 0 0 1000 0 1000 -995 0 -995 0 0 -1000z
m755 251 c87 -39 127 -117 129 -246 1 -81 -2 -96 -29 -150 -21 -42 -43 -69
-73 -90 -43 -30 -46 -30 -190 -33 l-147 -3 50 24 c28 13 58 33 67 43 67 76 85
241 36 345 -26 58 -69 98 -123 117 -24 8 -2 11 105 11 110 0 142 -3 175 -18z
m730 -238 c43 -142 81 -264 83 -270 3 -10 -19 -13 -92 -13 l-95 0 -32 103
c-17 56 -34 105 -38 109 -3 4 -22 -42 -40 -102 l-34 -110 -93 0 c-66 0 -94 4
-94 12 0 11 29 107 116 386 l45 142 98 0 97 0 79 -257z"/>
</g>
</svg>
